<svg width="299" height="636" xmlns="http://www.w3.org/2000/svg">

 <g label="Capa 1" id="imagebot_3">
  <path transform="translate(1.95313 -1.95313) matrix(1 0 0 1 -214.357 -105.834)" label="Capa 1" stroke="#000000" stroke-width="4" fill="#ffe6d5" d="M 294.96999694824217 539.1999984741211 C 294.96999694824217 560.399998474121 278.6889969482422 577.5859984741211 258.60499694824216 577.5859984741211 S 222.2399969482422 560.399998474121 222.2399969482422 539.1999984741211 S 238.52099694824219 500.81399847412115 258.60499694824216 500.81399847412115 S 294.96999694824217 517.9999984741211 294.96999694824217 539.1999984741211 z" id="imagebot_22"/>
  <path transform="matrix(1 0 0 1 -220.216 -105.834)" label="Capa 1" stroke="#000000" stroke-width="4" fill="#ffe6d5" d="M 298.999990234375 504.854997253418 C 298.999990234375 512.6654972534179 293.12059023437496 518.9969972534179 285.867990234375 518.9969972534179 S 272.735990234375 512.665397253418 272.735990234375 504.854997253418 C 272.735990234375 497.04449725341794 278.615390234375 490.71299725341794 285.867990234375 490.71299725341794 S 298.999990234375 497.0445972534179 298.999990234375 504.854997253418 z" id="imagebot_21"/>
  <path transform="matrix(1 0 0 1 -220.216 -105.834)" label="Capa 1" stroke="#000000" stroke-width="4" fill="#ffe6d5" d="M 309.1100061035156 543.240998840332 C 309.1100061035156 551.051498840332 303.2306061035156 557.382998840332 295.9780061035156 557.382998840332 S 282.8460061035156 551.051398840332 282.8460061035156 543.240998840332 C 282.8460061035156 535.430498840332 288.72540610351564 529.098998840332 295.9780061035156 529.098998840332 S 309.1100061035156 535.430598840332 309.1100061035156 543.240998840332 z" id="imagebot_18"/>
  <path transform="translate(-7.8125 0) matrix(1 0 0 1 -0.216003 -105.834)" label="Capa 1" stroke="#000000" stroke-width="4" fill="#ffe6d5" d="M 294.96999694824217 539.1999984741211 C 294.96999694824217 560.399998474121 278.6889969482422 577.5859984741211 258.60499694824216 577.5859984741211 S 222.2399969482422 560.399998474121 222.2399969482422 539.1999984741211 S 238.52099694824219 500.81399847412115 258.60499694824216 500.81399847412115 S 294.96999694824217 517.9999984741211 294.96999694824217 539.1999984741211 z" id="imagebot_16"/>
  <path transform="matrix(1 0 0 1 -0.216003 -105.834)" label="Capa 1" stroke="#000000" stroke-width="4" fill="#ffe6d5" d="M 246.48000122070312 506.87500152587893 C 246.48000122070312 514.6855015258789 240.6006012207031 521.0170015258789 233.3480012207031 521.0170015258789 S 220.21600122070313 514.6854015258789 220.21600122070313 506.87500152587893 C 220.21600122070313 499.0645015258789 226.09540122070314 492.7330015258789 233.3480012207031 492.7330015258789 S 246.48000122070312 499.06460152587886 246.48000122070312 506.87500152587893 z" id="imagebot_13"/>
  <path transform="matrix(1 0 0 1 -0.216003 -105.834)" label="Capa 1" stroke="#000000" stroke-width="4" fill="#ffe6d5" d="M 233.11000610351562 543.240998840332 C 233.11000610351562 551.051498840332 227.2306061035156 557.382998840332 219.9780061035156 557.382998840332 S 206.84600610351563 551.051398840332 206.84600610351563 543.240998840332 C 206.84600610351563 535.430498840332 212.72540610351564 529.098998840332 219.9780061035156 529.098998840332 S 233.11000610351562 535.430598840332 233.11000610351562 543.240998840332 z" id="imagebot_12"/>
  <path label="Capa 1" stroke="#000000" stroke-width="4" fill="#d38d5f" transform="translate(-1.996 0.0261774) matrix(1.3145 0.075292 0.2023 1.1915 -5.87 -158.634)" d="M117.14,612.36C117.14,630.506 97.313,645.217 72.854,645.217C48.396,645.217 28.568,630.506 28.568,612.36S48.395,579.503 72.854,579.503C97.312,579.503 117.14,594.214 117.14,612.36z" id="imagebot_35"/>
  <path label="Capa 1" stroke="#000000" stroke-width="4" fill="#d38d5f" transform="translate(-1.996 0.0261774) matrix(1.1589 -0.62478 0.79677 0.90876 -479.71 65.25)" d="M117.14,612.36C117.14,630.506 97.313,645.217 72.854,645.217C48.396,645.217 28.568,630.506 28.568,612.36S48.395,579.503 72.854,579.503C97.312,579.503 117.14,594.214 117.14,612.36z" id="imagebot_34"/>
  <rect transform="translate(-1.996 0.0261774) matrix(1 0 0 1 -218.22 -105.86)" label="Capa 1" stroke="#000000" stroke-width="4.1989" fill="#00ffff" x="256.72" y="434.15" width="226.08" height="234.16" ry="86.406" id="imagebot_33"/>
  <rect transform="translate(-1.996 0.0261774) matrix(1 0 0 1 -218.22 -105.86)" label="Capa 1" stroke="#000000" stroke-width="4.8312" fill="#0000ff" x="412.86" y="443.79" width="30" height="170.89" ry="21.882" id="imagebot_32"/>
  <rect transform="translate(-1.996 0.0261774) matrix(1 0 0 1 -218.22 -105.86)" label="Capa 1" stroke="#000000" stroke-width="4.8312" fill="#0000ff" x="292.86" y="443.79" width="30" height="170.89" ry="21.882" id="imagebot_31"/>
  <path label="Capa 1" stroke="#000000" stroke-width="4.959" fill="#ffe6d5" d="M 279.78399872779846 220.09617679037154 C 279.78399872779846 293.86517679037155 219.98199872779844 353.66617679037154 146.21399872779847 353.66617679037154 C 72.44499872779846 353.66617679037154 12.643998727798476 293.8641767903715 12.643998727798476 220.09617679037154 C 12.643998727798476 146.32717679037154 72.44599872779844 86.52617679037155 146.21399872779847 86.52617679037155 C 219.98299872779847 86.52617679037155 279.78399872779846 146.32817679037154 279.78399872779846 220.09617679037154 z" id="imagebot_30"/>
  <path transform="translate(-1.996 0.0261774) matrix(1 0 0 1 -218.22 -105.86)" label="Capa 1" stroke="#000000" stroke-width="4.959" fill="#ffd5d5" d="M 401.29 334.74747528973757 C 401.29 349.06974636737044 386.802 360.6795250410193 368.929 360.6795250410193 C 351.057 360.6795250410193 336.568 349.06935738662423 336.568 334.74747528973757 S 351.056 308.8154255384558 368.929 308.8154255384558 C 386.801 308.8154255384558 401.29 320.4255931928509 401.29 334.74747528973757 z" id="imagebot_29"/>
  <path transform="translate(-3.90625 13.6719) matrix(0.6438 0 0 0.6438 304.144 13.5594)" label="Capa 1" stroke="#000000" stroke-width="4.959" fill="#ffffff" d="M -97.39614920095761 248.6621197551714 C -97.39614920095761 272.9388109995459 -121.22233978640637 292.6172694827659 -150.61244504640544 292.6172694827659 C -180.003295340507 292.6172694827659 -203.8294859259551 272.9372896652991 -203.8294859259551 248.6621197551714 C -203.8294859259551 224.38542851079674 -180.003295340507 204.7069700275766 -150.61244504640544 204.7069700275766 S -97.39614920095761 224.38694984504363 -97.39614920095761 248.6621197551714 z" id="imagebot_25"/>
  <rect transform="translate(-1.996 0.0261774) matrix(1 0 0 1 -218.22 -105.86)" label="Capa 1" stroke="#000000" stroke-width="4.1276" fill="#0000ff" x="255.84" y="570.85" width="227.8" height="97.771" ry="44.686" rx="5.7143" id="imagebot_23"/>
  <path transform="translate(-1.996 0.0261774) matrix(1 0 0 1 -218.22 -105.86)" label="Capa 1" stroke="#000000" stroke-width="4" fill="none" d="M371.14,626.65C371.14,668.079 372.5686,669.507 372.5686,669.507" id="imagebot_10"/>
  <path transform="translate(-1.996 0.0261774) matrix(1 0 0 1 -218.22 -105.86)" label="Capa 1" stroke="#000000" stroke-width="4" fill="none" d="M358.29,628.08C379.71,626.65 384,626.65 384,626.65" id="imagebot_9"/>
  <path label="Capa 1" stroke-width="0" fill="#ffaaaa" d="M 80.10512150110638 244.6543287865897 C 80.10512150110638 257.6538932709232 70.34251084027402 268.19253992289066 58.29985332133134 268.19253992289066 C 46.25707369190996 268.19253992289066 36.494585141556286 257.65438756347123 36.494585141556286 244.6543287865897 C 36.494585141556286 231.6547643022564 46.25719580238866 221.1161176502888 58.29985332133134 221.1161176502888 C 70.34263295075273 221.1161176502888 80.10512150110638 231.65427000970845 80.10512150110638 244.6543287865897 z" id="imagebot_8"/>
  <path label="Capa 1" stroke="#000000" stroke-width="4" fill="#ffe6d5" transform="translate(-1.996 0.0261774) matrix(1.1125 0.17764 -0.20081 0.9841 332.16 -126.209)" d="M-60,430.22C-60,440.871 -70.233,449.506 -82.857,449.506C-93.314,449.506 -102.437,443.5188 -105.011,434.968" id="imagebot_6"/>
  <path label="Capa 1" stroke="#000000" stroke-width="4" fill="#ffe680" transform="translate(-1.996 0.0261774) matrix(0.65517 0 0 0.65517 305.62 36.33)" d="M-305.71,660.93C-305.71,673.554 -315.943,683.787 -328.567,683.787S-351.424,673.554 -351.424,660.93S-341.19,638.073 -328.567,638.073C-315.943,638.073 -305.71,648.306 -305.71,660.93z" id="imagebot_5"/>
  <path label="Capa 1" stroke="#000000" stroke-width="4" fill="#ffe680" transform="translate(-1.996 0.0261774) matrix(0.65517 0 0 0.65517 423.62 36.33)" d="M-305.71,660.93C-305.71,673.554 -315.943,683.787 -328.567,683.787S-351.424,673.554 -351.424,660.93S-341.19,638.073 -328.567,638.073C-315.943,638.073 -305.71,648.306 -305.71,660.93z" id="imagebot_4"/>
  <title>Capa 1</title>
  <path transform="rotate(2.57578 142.158 111.603) matrix(0.33243 0 0 0.33243 154.044 53.5885)" d="M 19.96084250792388 11.59964481433107 C 18.838586771445854 11.628485072729958 17.754067172284785 11.705317323620736 16.62718325543767 11.796499292923876 C -1.4029767481257984 13.255481212561236 -17.31653293020854 22.55135272306017 -25.400802656512383 36.40281624151817 L -29.68696569658131 46.88510951476451 C -28.762265659231225 43.25249026851454 -27.34240232440914 39.72948653563222 -25.400802656512383 36.40281624151817 C -39.81803519063337 24.26764382310012 -60.054069161374436 18.66652203739407 -80.04910840675137 21.29454833752093 C -100.0441649861371 23.92256055549032 -117.40899372712026 34.462069634339564 -126.89899957101453 49.739450166809604 C -153.68947298094574 36.33468676391376 -187.0843251096307 37.146551303568515 -212.9194692885329 51.85560412682835 C -238.75461346743506 66.56464286793079 -252.52469811428372 92.60818480294644 -248.3396616819811 118.88319515949657 L -245.60128696221855 129.56234291133575 C -246.83872718765903 126.06374355726462 -247.76285520271628 122.50456276196691 -248.3396616819811 118.88319515949657 L -248.75637125529295 119.8674534703033 C -271.2138451331798 121.8557132766215 -289.6317495812281 136.01142180616745 -294.41567602009997 154.95607777430135 C -299.1996024589718 173.90071966027787 -289.25204811686046 193.3392228070206 -269.77037287827244 203.1352362204956 L -239.35067803055802 209.13919220139638 C -249.97243864779279 209.849482139571 -260.5768999241721 207.75801420151188 -269.77037287827244 203.1352362204956 C -284.7972771724819 216.8101094848901 -288.2551866005712 237.05543575893077 -278.34264695638365 253.7750545258641 C -268.43012464620494 270.49464512848283 -247.2605502935885 280.12185572094825 -225.4207218198717 277.93844537708515 L -212.1455924623886 275.0841047250401 C -216.41691759086206 276.5365384414765 -220.85296780565756 277.4817891762262 -225.4207218198717 277.93844537708515 C -213.02241596723084 296.4808163541639 -192.46442011567885 310.00685529677236 -168.33171828424983 315.3892389312527 C -144.19901645282073 320.77163664789055 -118.56600415138902 317.5905899436705 -97.19369123099152 306.5802016849668 C -79.7581397338057 328.91805205887306 -48.81251372286926 340.6507423360319 -17.781015031975016 336.69830321258604 C 13.250466324910391 332.7458640891403 38.84839459238276 313.79278699086836 47.93980490223758 288.07624683333347 L 51.09487186130319 273.70615153920517 C 50.622450783472814 278.5881116275611 49.59731749871139 283.3877474236318 47.93980490223758 288.07624683333347 C 69.28367271407423 299.4474340473293 96.13179903751767 300.08824262078707 118.18488782240152 289.7494746959789 C 140.2379766072854 279.41070677117085 153.998510215245 259.6959680244513 154.20038208258225 238.22386052449372 L 146.29420196344174 206.14146702248726 L 115.14887083627713 184.43445505458433 C 139.23203207034655 196.69039605504776 154.4152544565745 215.36350578162606 154.20038208258225 238.22386052449372 C 182.8365114212971 238.46766491592922 207.16084072081944 218.53323043127938 218.07578876413552 195.6549491020145 C 228.99073680745198 172.77663960843472 224.86181056187175 146.69409009736194 207.24133985802663 127.1017534629486 C 214.54999935729867 112.51442680843877 214.11638912533544 95.92143480103799 206.0507881265881 81.62928424823676 C 197.98513512581397 67.33713369543548 183.107459313994 56.71451172348554 165.2133539460765 52.5446159251394 C 161.20888588420607 33.602128609248375 144.70243726262402 18.364938554058796 122.8877257677646 13.371363285981383 C 101.07301427290506 8.377788017903985 77.84431567223156 14.535309925484347 63.23893980580078 29.217831964162393 L 54.369006127318755 41.373353100054274 C 56.63547978951722 36.97763582529961 59.59557381677689 32.88038987709013 63.23893980580078 29.217831964162393 C 52.94324922947985 17.678461544083582 36.794869229191654 11.167181759921869 19.96080783990613 11.599701142960724 L 19.96084250792388 11.59964481433107 z" id="imagebot_36" stroke-opacity="null" stroke-linecap="null" stroke-linejoin="null" stroke-dasharray="null" stroke-width="3" stroke="#000000" fill="#bf5f00"/>
  <path transform="translate(-3.90625 0) matrix(1 0 0 1 -202.638 -88.2555)" id="imagebot_42" label="Capa 1" stroke="#000000" stroke-width="4.959" fill="#000000" d="M 420.578475 275.9587051192093 C 420.578475 282.8417351192093 415.347605 288.4209051192093 408.895145 288.4209051192093 C 402.442565 288.4209051192093 397.211825 282.8412751192093 397.211825 275.9587051192093 C 397.211825 269.0756751192093 402.442685 263.4965151192093 408.895145 263.4965151192093 C 415.347735 263.4965151192093 420.578475 269.0761451192093 420.578475 275.9587051192093 z"/>
  <path id="imagebot_44" transform="translate(50.7813 -9.76563) matrix(0.6438 0 0 0.6438 138.128 36.9969)" label="Capa 1" stroke="#000000" stroke-width="4.959" fill="#ffffff" d="M-97.39615,248.66212C-97.39615,272.93881 -121.22234,292.61727 -150.61245,292.61727C-180.0033,292.61727 -203.82949,272.93729 -203.82949,248.66212C-203.82949,224.38543 -180.0033,204.70697 -150.61245,204.70697S-97.39615,224.38695 -97.39615,248.66212z"/>
  <path transform="translate(-9.76563 -1.95313) matrix(1 0 0 1 -249.513 -92.1618)" id="imagebot_43" label="Capa 1" stroke="#000000" stroke-width="4.959" fill="#000000" d="M 361.984725 283.771205 C 361.984725 290.654235 356.753855 296.233405 350.301395 296.233405 C 343.848815 296.233405 338.618075 290.653775 338.618075 283.771205 C 338.618075 276.888175 343.848935 271.309015 350.301395 271.309015 C 356.753985 271.309015 361.984725 276.888645 361.984725 283.771205 z"/>
  <path id="imagebot_45" label="Capa 1" stroke-width="0" fill="#ffaaaa" d="M 259.7926198807907 244.65433 C 259.7926198807907 257.65389 250.03000988079071 268.19254 237.9873498807907 268.19254 C 225.9445698807907 268.19254 216.18208988079073 257.65439 216.18208988079073 244.65433 C 216.18208988079073 231.65476 225.94469988079072 221.11612 237.9873498807907 221.11612 C 250.0301298807907 221.11612 259.7926198807907 231.65427 259.7926198807907 244.65433 z"/>
 </g>
 <metadata id="imagebot_2">image/svg+xmlOpenclipart</metadata>
</svg>