<?xml version="1.0" encoding="utf-8"?>

<!DOCTYPE svg PUBLIC "-//W3C//DTD SVG 1.1//EN" "http://www.w3.org/Graphics/SVG/1.1/DTD/svg11.dtd">
<svg version="1.1" id="Layer_1" xmlns="http://www.w3.org/2000/svg" xmlns:xlink="http://www.w3.org/1999/xlink" x="0px" y="0px"
	 viewBox="0 0 1920 1486" enable-background="new 0 0 1920 1486" xml:space="preserve">
<g>
	<path fill="#E67817" stroke="#E67817" stroke-width="0.194" d="M730.25,50.17c16.03-8.75,33.87-15.15,52.23-15.83
		c5.9,1.08,11.92,0.81,17.86,0.18l0.75-0.08c6.2599,4.19,9.68,11.13,12.66,17.79c5.61,12.82,9.91,26.15,14.47,39.36
		c8.7401,0.81,13.2401,9.39,16.4901,16.48c7.74,18.61,11.19,38.63,14.5099,58.4c6.0601,38.93,9.55,78.2,12.78,117.45
		c5.89,75.65,10.21,151.41,15.79,227.08c0.06,1.12,0.05,2.25-0.03,3.38c-0.89,5.85-0.39,11.77,0.01,17.64c0.06,2,0.93,3.81,1.77,5.6
		c1.21,4.96,0.65,10.23,1.58,15.28c2.43,31,5.43,61.95,9.08,92.84c0.17,2.78,0.47,5.56,0.99,8.3c0.76,4.31,1.06,8.68,1.45,13.04
		c0.3,4.52,2.18,8.68,3.73,12.87c-7.21,9.51-15.94,17.68-24.4,26.04c-10.28,9.15-20.22,18.76-31.31,26.95
		c-25.17,20.79-51.03,40.73-76.9,60.64c-9.5,6.2-18.66,12.91-28.3,18.9c-20.02,12.45-40.42,24.39-61.7401,34.5
		c-8.54,4.96-17.8199,8.42-27.1,11.71c-1.41-4.79-0.71-9.79-0.85-14.68c-0.16-10.92,0.04-21.83-0.01-32.73
		c0.37-3.08,0.71-6.17,0.6-9.27c-0.25-8.03,0.22-16.1-0.92-24.08c-0.04,3.39-0.29,6.78-0.62,10.16
		c-1.54-59.56-5.91-119.09-14.65-178.06c-6.23-41.2401-14.65-82.22-26.97-122.1c-12.61-40.13-29.05-79.76-54.65-113.46
		c-9.83-12.39-20.32-25.15-34.86-32.18c-14.58-7.55-31.77-8.51-47.68-5.42c-25.13,5.35-47.4,19.8-65.88,37.24
		c-1.63,1.15-0.88,3.31-0.57,4.94c3.22,9.54,10.58,16.73,15.97,25c-3.55-0.54-6.79-2.15-10.12-3.37
		c-9.67-3.71-19.46-7.78-27.3-14.73c-1.59,10.89,2.88,21.4,4.96,31.91c-12.25-7.23-22.99-16.94-32.27-27.67
		c-1.95,3-0.86,6.62-0.47,9.9c1.28,8.8,4.01,17.28,6.51,25.78c-3.76,0.26-6.94-1.99-10.11-3.66c-9.43-5.53-18.46-11.93-26-19.89
		c-0.69-0.64-1.46-1.13-2.33-1.47c-1.32,5.68,0.49,11.41,1.78,16.93c1.87,7.58,5.37,14.59,8.29,21.79
		c-3.78-1.22-6.88-3.71-10.08-5.95c-10.41-7.78-20.23-16.44-28.72-26.31c-1.88-1.27-1.84,1.4-1.8,2.6
		c0.48,8.24,1.01,16.49,0.58,24.74c-3.96-0.03-6.35-3.8-9.07-6.16c-7.28-7.85-14.31-16.19-19.11-25.82
		c0.22,13.11,4,25.91,4.55,39.02c-5.03-0.26-8.59-4.3-11.97-7.55c-9.11-9.55-16.27-20.77-22.74-32.21
		c-7.38-12.29-8.21-26.99-12.92-40.29c-5.26,8.84-6.79,19.21-9.73,28.93c-1.13,3.36-1.56,7.13-3.82,9.99
		c-1.68,0.71-2.1-1.34-2.71-2.43c-9.89-25.4-13.6-53.03-12.02-80.18c2.19-38.97,14.01-76.78,29.89-112.22
		c1.59-2.97,1.17-6.53,0-9.56c-4.12-11.6-9.24-22.98-11.19-35.21c-0.54-5.3-0.62-10.66-0.01-15.95c0.41-2.26,0.76-5.32,3.47-5.93
		c4.49-1.28,9.25-0.69,13.87-0.63c12.82,0.98,25.54,2.89,38.25,4.76c59.86,4.07,119.84,6.61,179.85,6.98
		c15.65-0.72,31.34-0.06,46.98-1.18c14.02-1,28.23-1.41,41.92-4.89c3.7-0.73,6.07-4,8.42-6.66c11.3-14.98,19.84-31.88,31.72-46.43
		c6.04-7.12,13.08-14.51,22.67-16.3c8.69-1.13,17.55-0.65,26.16-2.5c14.6-2.41,28.4901-7.85,43-10.73
		c15.2-3.26,30.66-5.22,46.15-6.35C723.92,54.68,726.85,51.82,730.25,50.17 M733.77,89.08c-8.84,15.74-16.55,32.15-22.49,49.2
		c-15.2,41.57-19.59,87.07-12.22,130.73c0.7,4.4,1.5,9.05,4.4,12.61c1.02,1.76,3.88,1.28,4.91-0.26c2.49-2.93,1.58-7.06,2.37-10.55
		c0.39-1.64,2.32-2.16,3.5-0.97c5.03,4.38,7.14,11.29,12.58,15.32c1.1,1.01,2.65,0.68,4.02,0.81c0.5099-3.98-0.69-8.01,0.3799-11.94
		c1.57,0.52,3.22,1.06,4.4,2.31c3.75,3.6,7.45,7.26,11.25,10.81c0.74,0.81,2.49,0.91,2.83-0.39c0.27-3.51-1.21-7.08,0.03-10.51
		c7.8,2.41,13.72,8.66,21.48,11.25c1.32-3.92-0.18-8.09,0.27-12.13c3.01-0.26,5.09,2.29,7.56,3.57c4.72,3.16,10.45,3.97,15.93,4.87
		c3.29,0.43,6.69,0.9,9.9901,0.23c1.08-0.03,2.36-1.27,1.2599-2.18c-2.2599-2.5-4.9-4.75-6.35-7.86c-0.78-1.75-1.92-3.91-0.63-5.71
		c2.35-1.02,4.35,0.98,6.15,2.19c3.29,2.53,7.41,4.35,11.64,3.71c2.6299-0.39,6.22-1.16,6.75-4.28c11.08-39.53,14.84-81,11.78-121.9
		c-0.67-17.46-3.93-34.67-6.1-51.96c-0.65,8,0.7599,15.95,0.85,23.94c2.54,45.36-1.31,91.19-12.84,135.18
		c-1.45-1.32-1-3.45-1.27-5.19c-0.54-7.87-3.75-16.21-10.26-21c-2.08-0.95-2.15,1.74-2.15,3.06c0.73,9.51,4.19,18.68,4.36,28.25
		c-4.21-1.29-6.13-5.79-8.15-9.33c-3.59-6.41-4.61-13.99-8.79-20.07c-3.23,5.11-1.1,11.47-0.77,17.06
		c0.31,5.87,2.6,11.64,1.83,17.54c-5.61-6.23-8.7-14.2-11.78-21.87c-1.48-3.39-1.9-7.72-5.33-9.82c-0.94,1.59-1.86,3.25-2.0099,5.13
		c-1.34,9.24,3.04,18.07,2.72,27.27c-3.08-1.07-4.93-3.88-6.52-6.55c-3.23-5.26-3.98-11.49-5.86-17.26c-0.34-1.38-2.11-1-3.13-1.32
		c-3.24,6.91-1.09,14.68-1.01,21.96c0.12,1.71-0.5699,3.31-1.31,4.81c-3.99-2.81-4.82-8-6.65-12.22
		c-1.99-4.58-2.47-10.12-6.13-13.77c-5.79,6.81-3.32,16.18-4.3,24.28c-5.27-3.04-7.72-9.14-9.53-14.65
		c-1.01-2.33-1.06-5.53-3.43-6.94c-4.2,1.92-3.74,7.8-6.14,11.28c-1.43,1.01-1.93-1.3-2.63-2.06c-9.52-16.51-10.9-36.09-10.45-54.73
		c2.1299-36.08,12.08-71.13,23.95-105.09C733.24,92.36,733.52,90.72,733.77,89.08 M596.37,123.58c-5.46,1.93-9.35,6.94-11.4,12.2
		c-0.39,0.92-0.75,1.85-1.08,2.78c-0.35,0.21-1.05,0.61-1.4,0.81c-0.94,4.81-2.25,10.3,0.45,14.8c1.52,3.96,4.09,8.58,8.93,8.62
		c1.5-0.22,4.28,0.48,4.62-1.66c0.98-0.39,1.95-0.82,2.89-1.31c1.5,0.41,3.09-0.14,4.05-1.34c3.54-3.8,5.83-8.61,7.36-13.52
		c0.47-4.27,0.27-8.61-0.16-12.87c-0.7-3.08-2.13-6.94-5.72-7.45l-1.1299-0.23C601.77,122.79,598.76,123.03,596.37,123.58
		 M241.88,185.43c5.11-5.08,9.25-12.95,17.25-13.52c-0.11,4.4-2.79,8.17-3.68,12.42c-1.71,6.6-3.57,14.51,0.62,20.56
		c5.16,4.08,12.32,4.6,18.62,3.63c6.61-1.48,12.46-6.36,15.15-12.58c-6.91,4.42-14.27,9.57-22.86,9.25
		c-4.78-0.16-10.44-2.96-11.14-8.17c-0.65-6.44,2.76-12.29,5.25-17.98c1.59-3.55,3.96-6.94,3.89-10.98
		C254.25,166.5,244.09,175.23,241.88,185.43 M354.13,225.24c11.7,5.11,23.57,9.87,34.91,15.78c5.7,3.04,11.92,5.55,16.64,10.09
		c-2.92,1.83-6.42,2.01-9.65,2.94c-9.1,2.47-18.23,5.17-26.7,9.36c-1.27,0.6-3.39,2.55-1.52,3.72c6.06,2.93,12.56,4.98,18.26,8.65
		c11.56,6.43,21.81,16.02,26.75,28.52c4.41,11.25,7.1,23.69,4.86,35.75c-5.49-13.42-16.51-23.77-28.99-30.73
		c-1.44-0.87-3.11-1.18-4.73-1.46c1.38,5.19,4.59,9.62,6.91,14.41c6.06,11.53,13.75,23.19,13.63,36.71c1.04-0.48,2.11-0.93,3.1-1.54
		c12.15-8.34,25.12-15.53,38.75-21.19c19.86-8.72,41.42-12.34,62.61-16.23c2.34-0.51,5-0.59,6.94-2.16c0.37-1.5-1.66-1.78-2.54-2.44
		c-28.6-13.73-58.53-24.85-89.43-32.18c-3.7-0.99-7.53-1.49-11.1-2.93c6.34-4.59,14.71-4.1,22.16-3.98
		c7.03-0.11,14.07,1.99,21.06,0.5c-5.47-6.23-12.37-11.04-19.26-15.58c-9.59-6.77-20.14-12.01-30.48-17.51
		c-12.07-5.57-24.22-11.07-36.89-15.17C364.44,227.02,359.39,225.41,354.13,225.24 M204.22,306.9c-2.58,24.1-0.42,48.53,4.79,72.14
		c0.58,2.66,1.55,5.23,2.93,7.58c1.13-0.45,1.89-1.22,2.29-2.31c3.36-9.48,4.81-19.93,10.92-28.19c1.47-1.75,0.86-4.11,0.82-6.17
		c-2.33-36.87-0.71-74.47,9.75-110.1c1.22-4.66,3.4-9.05,4.11-13.84C220.99,249.09,207.5,277.09,204.22,306.9 M482.98,334.5
		c6.35,0.59,12.76,0.6,19.11-0.03C495.85,333.23,489.21,333.15,482.98,334.5z"/>
	<path fill="#C9762C" stroke="#C9762C" stroke-width="0.194" d="M782.48,34.34c5.85-0.77,12.07-1.11,17.86,0.18
		C794.4,35.15,788.38,35.42,782.48,34.34z"/>
	<path fill="#AF5727" stroke="#AF5727" stroke-width="0.194" d="M733.77,89.08c-0.25,1.64-0.53,3.28-1.04,4.86
		c-11.87,33.96-21.82,69.01-23.95,105.09c-0.45,18.64,0.93,38.22,10.45,54.73c0.7,0.76,1.2,3.07,2.63,2.06
		c2.4-3.48,1.94-9.36,6.14-11.28c2.37,1.41,2.42,4.61,3.43,6.94c1.81,5.51,4.26,11.61,9.53,14.65c0.98-8.1-1.4901-17.47,4.3-24.28
		c3.66,3.65,4.14,9.19,6.13,13.77c1.83,4.22,2.66,9.41,6.65,12.22c0.7401-1.5,1.43-3.1,1.31-4.81c-0.08-7.28-2.23-15.05,1.01-21.96
		c1.02,0.32,2.79-0.06,3.13,1.32c1.88,5.77,2.63,12,5.86,17.26c1.59,2.67,3.44,5.48,6.52,6.55c0.32-9.2-4.06-18.03-2.72-27.27
		c0.15-1.88,1.0699-3.54,2.0099-5.13c3.4301,2.1,3.85,6.43,5.33,9.82c3.08,7.67,6.17,15.64,11.78,21.87
		c0.77-5.9-1.52-11.67-1.83-17.54c-0.33-5.59-2.46-11.95,0.77-17.06c4.18,6.08,5.2,13.66,8.79,20.07c2.02,3.54,3.94,8.04,8.15,9.33
		c-0.17-9.57-3.63-18.74-4.36-28.25c0-1.32,0.07-4.01,2.15-3.06c6.51,4.79,9.72,13.13,10.26,21c0.27,1.74-0.18,3.87,1.27,5.19
		c11.53-43.99,15.38-89.82,12.84-135.18c-0.09-7.99-1.5-15.94-0.85-23.94c2.17,17.29,5.43,34.5,6.1,51.96
		c3.06,40.9-0.7,82.37-11.78,121.9c-0.53,3.12-4.1201,3.89-6.75,4.28c-4.23,0.64-8.35-1.18-11.64-3.71c-1.8-1.21-3.8-3.21-6.15-2.19
		c-1.29,1.8-0.15,3.96,0.63,5.71c1.45,3.11,4.09,5.36,6.35,7.86c1.1,0.91-0.18,2.15-1.2599,2.18c-3.3,0.67-6.7,0.2-9.9901-0.23
		c-5.48-0.9-11.21-1.71-15.93-4.87c-2.47-1.28-4.55-3.83-7.56-3.57c-0.45,4.04,1.05,8.21-0.27,12.13
		c-7.76-2.59-13.68-8.84-21.48-11.25c-1.24,3.43,0.24,7-0.03,10.51c-0.34,1.3-2.09,1.2-2.83,0.39c-3.8-3.55-7.5-7.21-11.25-10.81
		c-1.18-1.25-2.83-1.79-4.4-2.31c-1.0699,3.93,0.13,7.96-0.3799,11.94c-1.3701-0.13-2.92,0.2-4.02-0.81
		c-5.44-4.03-7.55-10.94-12.58-15.32c-1.18-1.19-3.11-0.67-3.5,0.97c-0.79,3.49,0.12,7.62-2.37,10.55
		c-1.03,1.54-3.89,2.02-4.91,0.26c-2.9-3.56-3.7-8.21-4.4-12.61c-7.37-43.66-2.98-89.16,12.22-130.73
		C717.22,121.23,724.93,104.82,733.77,89.08z"/>
	<path fill="#1F1A17" stroke="#1F1A17" stroke-width="0.194" d="M596.37,123.58c2.39-0.55,5.4-0.79,7.41,0.83
		c2.41,4.9,6.22,9.85,5.21,15.64c-0.93,4.83-2.5,9.67-5.3,13.75c-2.37,2.71-5.42,4.92-8.79,6.21c-4.64,0.25-9.52-3.22-9.9301-8.04
		c-0.5699-5.38-0.27-10.81,0-16.19C587.02,130.52,590.91,125.51,596.37,123.58 M595.32,130.28c-2.48,1.33-2.7,5.22-0.37,6.82
		c2.02,1.78,5.52,0.46,6.07-2.11C602.23,131.77,598.3,128.36,595.32,130.28z"/>
	<path fill="#371503" stroke="#371503" stroke-width="0.194" d="M603.78,124.41l1.1299,0.23c2.67,2.8,4.57,6.38,4.9901,10.26
		c1.13,9.33-2.75,19.42-10.52,24.92c-0.94,0.49-1.91,0.92-2.89,1.31c-3.47,0.65-7.47,0.11-9.8-2.8c-4.6-5.43-4.33-13.22-2.8-19.77
		c0.33-0.93,0.69-1.86,1.08-2.78c-0.27,5.38-0.5699,10.81,0,16.19c0.41,4.82,5.29,8.29,9.9301,8.04c3.37-1.29,6.42-3.5,8.79-6.21
		c2.8-4.08,4.37-8.92,5.3-13.75C610,134.26,606.19,129.31,603.78,124.41z"/>
	<path fill="#CE7C35" stroke="#CE7C35" stroke-width="0.194" d="M604.91,124.64c3.59,0.51,5.02,4.37,5.72,7.45
		c0.43,4.26,0.63,8.6,0.16,12.87c-1.53,4.91-3.82,9.72-7.36,13.52c-0.96,1.2-2.55,1.75-4.05,1.34c7.77-5.5,11.65-15.59,10.52-24.92
		C609.48,131.02,607.58,127.44,604.91,124.64z"/>
	<path fill="#FEFCFA" stroke="#FEFCFA" stroke-width="0.194" d="M595.32,130.28c2.98-1.92,6.91,1.49,5.7,4.71
		c-0.55,2.57-4.05,3.89-6.07,2.11C592.62,135.5,592.84,131.61,595.32,130.28z"/>
	<path fill="#C77834" stroke="#C77834" stroke-width="0.194" d="M582.49,139.37c0.35-0.2,1.05-0.6,1.4-0.81
		c-1.53,6.55-1.8,14.34,2.8,19.77c2.33,2.91,6.33,3.45,9.8,2.8c-0.34,2.14-3.12,1.44-4.62,1.66c-4.84-0.04-7.41-4.66-8.93-8.62
		C580.24,149.67,581.55,144.18,582.49,139.37z"/>
	<path fill="#B15620" stroke="#B15620" stroke-width="0.194" d="M241.88,185.43c2.21-10.2,12.37-18.93,23.1-17.37
		c0.07,4.04-2.3,7.43-3.89,10.98c-2.49,5.69-5.9,11.54-5.25,17.98c0.7,5.21,6.36,8.01,11.14,8.17c8.59,0.32,15.95-4.83,22.86-9.25
		c-2.69,6.22-8.54,11.1-15.15,12.58c-6.3,0.97-13.46,0.45-18.62-3.63c-4.19-6.05-2.33-13.96-0.62-20.56
		c0.89-4.25,3.57-8.02,3.68-12.42C251.13,172.48,246.99,180.35,241.88,185.43z"/>
	<path fill="#AF5727" stroke="#AF5727" stroke-width="0.194" d="M354.13,225.24c5.26,0.17,10.31,1.78,15.29,3.33
		c12.67,4.1,24.82,9.6,36.89,15.17c10.34,5.5,20.89,10.74,30.48,17.51c6.89,4.54,13.79,9.35,19.26,15.58
		c-6.99,1.49-14.03-0.61-21.06-0.5c-7.45-0.12-15.82-0.61-22.16,3.98c3.57,1.44,7.4,1.94,11.1,2.93
		c30.9,7.33,60.83,18.45,89.43,32.18c0.88,0.66,2.91,0.94,2.54,2.44c-1.94,1.57-4.6,1.65-6.94,2.16
		c-21.19,3.89-42.75,7.51-62.61,16.23c-13.63,5.66-26.6,12.85-38.75,21.19c-0.99,0.61-2.06,1.06-3.1,1.54
		c0.12-13.52-7.57-25.18-13.63-36.71c-2.32-4.79-5.53-9.22-6.91-14.41c1.62,0.28,3.29,0.59,4.73,1.46
		c12.48,6.96,23.5,17.31,28.99,30.73c2.24-12.06-0.45-24.5-4.86-35.75c-4.94-12.5-15.19-22.09-26.75-28.52
		c-5.7-3.67-12.2-5.72-18.26-8.65c-1.87-1.17,0.25-3.12,1.52-3.72c8.47-4.19,17.6-6.89,26.7-9.36c3.23-0.93,6.73-1.11,9.65-2.94
		c-4.72-4.54-10.94-7.05-16.64-10.09C377.7,235.11,365.83,230.35,354.13,225.24z"/>
	<path fill="#AF5727" stroke="#AF5727" stroke-width="0.194" d="M204.22,306.9c3.28-29.81,16.77-57.81,35.61-80.89
		c-0.71,4.79-2.89,9.18-4.11,13.84c-10.46,35.63-12.08,73.23-9.75,110.1c0.04,2.06,0.65,4.42-0.82,6.17
		c-6.11,8.26-7.56,18.71-10.92,28.19c-0.4,1.09-1.16,1.86-2.29,2.31c-1.38-2.35-2.35-4.92-2.93-7.58
		C203.8,355.43,201.64,331,204.22,306.9z"/>
	<path fill="#C6762B" stroke="#C6762B" stroke-width="0.194" d="M482.98,334.5c6.23-1.35,12.87-1.27,19.11-0.03
		C495.74,335.1,489.33,335.09,482.98,334.5z"/>
	<path fill="#CC7E37" stroke="#CC7E37" stroke-width="0.194" d="M887.77,532.02c-0.4-5.87-0.9-11.79-0.01-17.64
		c1.08,7.68,1.82,15.47,1.78,23.24C888.7,535.83,887.83,534.02,887.77,532.02z"/>
	<path fill="#85C226" stroke="#85C226" stroke-width="0.194" d="M900.2,645.74c8.58-3.92,17.43-7.6,26.75-9.3
		c4.59-0.99,10.27-0.07,12.26,4.79c1.38,5.93-1.45,11.67-4.29,16.7c-2.96,4.99-6.27,9.79-10.11,14.14c-4.57,1.77-6.55,6.59-10,9.72
		c-2.71,3.2-7.13,5.37-7.78,9.89c-13.04,13.74-27.3101,26.25-41.5,38.78c-20.04,17.39-40.55,34.24-61.46,50.57
		c-34.7,28.17-73.43,51.08-113.71,70.27c-14.73,6.87-29.78,13.19-45.45,17.61c-9.23,2.4301-19,4.61-28.45,2.06
		c-2.61-2.7-4.9901-6.28-3.66-10.2c3.57-11.99,12.82-21.04,20.94-30.13c6.78-6.84,13.6-13.75,21.09-19.78l0.93,0.42
		c0.05,10.9-0.15,21.81,0.01,32.73c0.14,4.89-0.56,9.89,0.85,14.68c9.28-3.29,18.56-6.75,27.1-11.71
		c21.32-10.11,41.72-22.05,61.7401-34.5c9.64-5.99,18.8-12.7,28.3-18.9c25.87-19.91,51.73-39.85,76.9-60.64
		c11.09-8.19,21.03-17.8,31.31-26.95c8.46-8.36,17.19-16.53,24.4-26.04c3.84-5.23,8.03-10.54,9.69-16.93
		c0.96-3.25,0.34-7.54-2.94-9.21c-3.69-2.26-8.06-0.47-11.93,0.23C900.67,651.3,900.37,648.52,900.2,645.74 M634.72,836.71
		c-3.68,4.95-7.71,9.94-9.36,16l-0.99-0.8c-1.59,3.65-0.3,7.52,2.62,10.05c4.67,2.36,10.19,2.74,15.24,1.45
		c4.62-1.25,9.56-1.56,13.84-3.86c-0.35-0.15-1.05-0.45-1.4-0.6c0.19-5.67-0.2-11.36,0.45-17c0.75-8.7-0.54-17.36-0.32-26.05
		C647.44,822.14,640.97,829.37,634.72,836.71z"/>
	<path fill="#00923F" stroke="#00923F" stroke-width="0.194" d="M939.21,641.23c8.91,12.73,17.94,25.38,26.94,38.04
		c-1.9901,3.56-4.27,6.95-6.58,10.31c-32.21,48.36-76.42,87.35-123.49,120.8c-2.36,1.41-5.03,2.14-7.58,3.09
		c-0.17,3.57-3.78,4.8701-6.24,6.71c-49.8,34.8-103.87,63.79-161.41,83.55c-2.9,0.99-5.85,1.81-8.71,2.87
		c-0.12,0.14-0.36,0.4-0.48,0.53c-1.09,0.22-2.19,0.55-3.04,1.29c-2.02,0.1-4.04,0.19-6.05,0.32c-1.69-1.78-2.96-3.87-4.3-5.9
		c-7.74-10.28-14.36-21.3701-21.81-31.8701c9.45,2.55,19.22,0.3701,28.45-2.06c15.67-4.42,30.72-10.74,45.45-17.61
		c40.28-19.19,79.01-42.1,113.71-70.27c20.91-16.33,41.42-33.1801,61.46-50.57c14.1899-12.53,28.46-25.04,41.5-38.78
		c6.39-6.08,12.37-12.64,17.78-19.61c3.84-4.35,7.15-9.15,10.11-14.14C937.76,652.9,940.59,647.16,939.21,641.23z"/>
	<path fill="#02923F" stroke="#02923F" stroke-width="0.194" d="M901.19,654.04c3.87-0.7,8.24-2.49,11.93-0.23
		c3.28,1.67,3.9,5.96,2.94,9.21c-1.66,6.39-5.85,11.7-9.69,16.93c-1.55-4.19-3.43-8.35-3.73-12.87
		C902.25,662.72,901.95,658.35,901.19,654.04z"/>
	<path fill="#75C844" stroke="#75C844" stroke-width="0.194" d="M914.81,681.79c3.45-3.13,5.43-7.95,10-9.72
		c-5.41,6.97-11.39,13.53-17.78,19.61C907.68,687.16,912.1,684.99,914.81,681.79z"/>
	<path fill="#E67817" stroke="#E67817" stroke-width="0.194" d="M836.08,810.38c47.07-33.45,91.28-72.44,123.49-120.8
		c14.62,13.69,31.98,23.95,48.15,35.65c8.53,6.11,15.71,14.06,20.66,23.34c7.6899,14.44,11.4,30.53,15.1899,46.32
		c5.0701,21.93,16.8101,42.06,32.52,58.09c23.53,23.78,53.9701,39.19,84.89,51.06c42.49,16.02,86.87,26.21,131.16,35.8
		c43.6,9.41,87.41,17.91,130.75,28.47c41.8199,10.27,83.39,22.36,122.77,39.98c33.1899,14.98,64.9299,34.3901,90.2799,60.81
		c12.7401,13.36,23.79,28.4,32.29,44.8c16.22,31.0699,23.37,66.27,23.76,101.14c0.5,6.74-0.89,15.23,5.16,19.96
		c5.25,2.45,11.0699-0.45,15.64-3.17c12.5499-8.13,22.84-19.1699,32.8999-30.09c20.4-23,38.7201-47.79,55.5701-73.48
		c8.66-13.53,16.42-28.59,30.29-37.6c5.09-3.01,10.85-6.88,17.0599-5.0601c6.61,2.37,11.1801,8.17,15.11,13.73
		c8.99,13.42,14.85,28.64,19.92,43.9c5.45,17.1801,9.47,34.8201,11.87,52.6901c0.29,4.13,1.2,8.26,0.92,12.4299
		c-1.1901,5.16-0.54,10.4601-0.77,15.7001c-0.15,2.5199,0.3099,5.01,0.7799,7.49c-0.34,8.26-2.2599,16.9099-7.1699,23.74
		c-2.5801,3.7-6.86,5.84-11.23,6.53c-15.04,2.97-29.7001,8.8199-41.7101,18.49c-10.51,8.4099-20.7699,17.5299-33.33,22.7899
		c-17.64,8.2001-37.15,10.3301-56.08,13.7001c-13.67,2.35-26.8301,7.5399-38.24,15.4399c10.4399,3.5,21.45,5.63,31.24,10.85
		c-4.3101,0.61-8.5601-0.51-12.8501-0.59c-3.47-0.29-6.99-0.3199-10.3899-1.05c-3.5601-2.3799-8.4701-2.5499-12.1801-0.45
		l-0.35,0.17c3.41,1.58,7.25,1.61,10.87,2.5c15.46,2.7799,30.5699,8.01,44.09,16.0699c-7.74-0.5599-15.24-2.8099-22.87-4.08
		c-9.75-1.65-19.49-4.34-29.45-3.9501c0.88,1.99,3.38,1.6801,5.1599,2.2001c16.67,3.14,33.9,7.0499,48,16.95
		c-12.7899-1.0399-25.24-4.48-37.9099-6.37c-5.7001-0.7-11.37-2.34-17.14-1.8199c1.11,1.24,2.95,1.4199,4.5,1.98
		c10.09,2.8199,20.23,5.51,30.1699,8.87c2.5901,0.95,5.3501,1.7,7.4901,3.58c-5.3201,2.79-11.4,0.0901-17.0701,1.02
		c-21.3199-2.53-42.67-4.95-64.0699-6.74c-2.7101-0.3-5.6001,1.2-8.13-0.1801c-1.78-1.0199-3.8401-0.8999-5.77-1.12
		c-38.26-3.12-76.5801-5.5099-114.9501-6.83c-11.33-0.83-22.7-0.89-34.0499-1.04c-14.3101-0.86-28.65-0.6-42.97-0.9199
		c-21.01-0.65-42.0601-0.86-63.0601,0.08c-25.64,0.65-51.35,3.11-76.35,9.04c-29.24,6.8099-57.26,19.09-81.8101,36.4199
		c-3.1599,2.3401-7.14,2.9701-10.9099,3.6001c-3.4701,0.5-6.92,1.34-10.4401,1.1599c-11.1699-0.8999-22.36,0.53-33.54,0.7101
		c-12.3099,0.1499-24.6399,0.1499-36.9299-0.55c-6.41-0.0599-12.85-0.45-19.21,0.52c-24.7301-1.03-49.4601-3.72-73.8201-8.26
		c-11.9199-2.51-23.85-5.3-35.12-10c-6.98-3.04-14.07-6.76-18.71-12.99c-2.57-3.42-3.21-7.98-2.1-12.05
		c5.74-20.4199,13.86-40.24,24.89-58.39c9.66-15.98,22.03-30.35,36.61-42.0499c27.7-22.55,62.7-34.38,97.76-39.0801
		c17.1-2.4399,34.3899-3.45,51.6699-3.2599c9.01,0.22,18.05-0.17,27.03,0.71c62.6,3.52,124.34,15.3199,185.75,27.4299
		c8.1,1.54,16.1,3.91,24.36,4.54c-5.9-2.59-12.1-4.42-18.35-5.9c-93.04-28.84-191.65-40.48-288.76-31.74
		c-27.1,2.3101-54.05,6.27-80.7,11.7001c-46.1301,9.0699-91.28,22.71-135.3701,38.98c-29.81,10.7-58.96,23.25-89.15,32.9
		c-0.09,3.13-0.78,6.2-2.04,9.08c1.66,8.1801,2.84,16.78,7.48,23.9301c1.85,3.22,4.89,5.4299,7.57,7.9399
		c-8.99-2.97-14.05-11.71-21.52-16.88c3.52,8.09,8.42,15.46,12.77,23.11c2.12,3.89,4.76,7.62,5.76,12.01
		c-4.9-2.46-9.66-5.52-15.36-5.61c0.61,5.61,2.94,10.99,2.85,16.6899c-0.26,2.62-2.87,3.91-5.26,3.2001
		c-45.44-4.9501-90.63-12.04-136.1-16.8c-26.87-3.14-53.85-5.36-80.85-6.95c-34.9901-1.55-70.38-2.39-105.02,3.6799
		c-11.15,2.2001-22.37,4.9601-32.43,10.39c-6.74,3.5601-13.12,8.41-16.85,15.2101c-2.3,4.2899-7.57,5.0599-11.82,6.2799
		c-4.97,1.0601-10.05,2.51-15.14,2.24c-1.6-0.3099-4.29-1.37-5.29,0.2301c0.33,0.1799,0.99,0.5399,1.33,0.72
		c-24.18,2.48-48.52,2.84-72.81,2.5499c-27.81-0.08-55.57-1.86-83.24-4.62c-21.77-2.75-43.78-5.4299-64.65-12.5399
		c-6.79-2.55-14.04-5.28-18.79-11.04c-2.95-3.15-2.08-7.79-1.93-11.6899c1.77-14.8,10.03-27.8601,19.46-39.02
		c5.1-6.03,10.71-11.63,16.63-16.8401c12.82-11.74,27.51-21.23,42.5-29.9199c28.08-15.54,58.54-27.8201,90.6-31.6
		c50.01-4.13,100.26-2.2301,150.3,0.21c14.35,1.16,28.77,1.17,43.12,2.41c25.61,1.26,51.24,2.7799,76.89,2.24
		c17.92-0.1801,36.51-1.05,53.21-8.0901c3.9-2.37,7.75-5.2699,9.71-9.5199c1.77-3.3301,1.65-7.2001,1.37-10.8301
		c-7.05-6.83-12.21-15.26-18.61-22.64c-0.69-1.21-2.1-1.45-3.3-0.9199c-2.74,2.22-2.15,6.11-3.58,9.0299
		c-1.6,2.9501-1.18,6.3601-1.2,9.5901c0.04,4.52,0.15,9.0399,0.3,13.5699c-0.56-0.03-1.68-0.1-2.24-0.13
		c-3.29-11-5.84-22.2-8.54-33.35c-1.88-7.0599-3.16-14.33-6.03-21.08c-0.2599-1.26-2.22-2.55-2.49-0.6001
		c-0.96,7.9601,1.33,15.8401,2.82,23.6101c2.36,12.9199,6.4,25.51,8.11,38.5599c-4.4-5.3199-7-11.86-10.13-17.97
		c-13.03-27.6-20.09-58.05-20.2-88.59c-0.7401-5.02,0.3199-10.03,0.12-15.0601c0.17-5.02,0.16-10.0599,0.86-15.03
		c0.9-5.38,4.23-9.87,5.6-15.09c3.08-9.88,3.3-20.51,1.31-30.63c9.31-48.45,24.43-95.67,31.81-144.51
		c57.54-19.76,111.61-48.75,161.41-83.55c2.46-1.84,6.07-3.14,6.24-6.71C831.05,812.52,833.72,811.79,836.08,810.38 M828.37,816.51
		c3.19-1.02,6.46-2.75,8.18-5.77C833.45,811.97,830.36,813.77,828.37,816.51 M1249.6801,1077.55
		c-12.12,15.2-21.1001,33.1699-24.39,52.4299c-4.1801,23-0.2101,46.5601,6.2,68.77c8.64,4.52,17.49,8.66,26.67,12.02
		c42.2899,15.53,88.1599,18.46,132.7899,15.4299c11.02-0.97,22.16-1.5299,33-3.73c-32.0699-1.75-64.21-2.03-96.2799-3.97
		c-9.28-0.66-18.67-0.73-27.79-2.72c0.54-0.79,1.27-1.3201,2.1899-1.5901c13.13-4.0199,26.4801-7.34,39.53-11.6499
		c5.49-1.8501,11.24-3.51,16.02-6.91c1.6801-0.77,1.66-3.54-0.0599-4.24c-3.1101-1.8201-6.8401-2.05-10.28-2.87
		c-23.26-4-46.85-6.01-69.9601-10.88c-3.8999-1.17-8.5299-1.36-11.4399-4.5c1.28-0.87,2.55-1.87,4.14-2.13
		c16.21-3.8,33.1799-5.36,48.33-12.74c6.1901-3.02,12.27-7.4401,14.97-14c1.3101-2.87,0.01-6.4-2.6599-7.9501
		c-4.7101-2.87-10.3301-3.5199-15.67-4.36c-10.0599-1.51-20.23-0.14-30.3199-0.88c1.51-1.2699,3.5199-1.5299,5.36-2.08
		c7.53-1.97,14.73-5.3,21.0699-9.8101c4.62-3.74,9.48-8.8199,9.12-15.21c-1.0599-7.29-7.1599-12.4199-13.23-15.83
		c-5.09-3.3201-11.09-4.8-16.27-7.86c-1.7-2.3,0.89-4.5801,2.28-6.24c6.28-6.2201,10.23-15.1001,8.92-24.03
		c-0.8401-4.91-1.49-10.3301-4.74-14.28C1279.49,1047.3,1262.8101,1060.87,1249.6801,1077.55 M1215.8,1110.8
		c-7.4501,8.0199-12.4801,18.09-15.3101,28.61c-1.55,6.7-8.4299,10.11-14.47,11.89c-9.92,2.4199-20.24,1.75-30.3201,1.11
		c-15.3099-1.5601-30.47-4.12-45.6899-6.3201c-9.27-1.21-18.6901-3.11-28.04-1.65c1.02,2.77,4.1801,3.65,6.52,5.03
		c18.42,8.15,38.33,13.0801,58.46,14.23c8.6901,0.99,17.4501,0.0901,26.16,0.6801c-7.8199,3.0599-16.24,3.99-24.5,5.05
		c-21.39,1.1-42.73-2.26-63.59-6.6901c-5.72-1.1-11.26-3.15-17.09-3.5599c5.6899,3.73,12.1499,5.98,18.49,8.34
		c9.6499,3.5599,19.58,6.3099,29.5499,8.8199c11.3401,2.9301,23.24,2.4401,34.8,1.24c5.4199-0.46,10.6899-2,16.13-2.33
		c-24.5,8.39-50.0701,14.3199-76,15.51c-7.04,0.53-14.13-0.49-21.12,0.48c5,1.28,10.2,1.49,15.3199,2.08
		c5.34,0.39,10.7001,1.4,16.0701,0.7401c1.21,0.3899,2.46,0.61,3.76,0.6699c23.6699,1.37,47.49,0.97,71.0099-2.13
		c2.65-0.2999,5.4601-0.63,7.9801,0.5c7.2,2.92,14.11,6.48,21.08,9.9c4.15,1.87,8.3101,4.21,12.92,4.66
		c2,0.24,1.9099-2.2001,1.7-3.51c-2.92-22.92-9.83-46.01-5.58-69.22c1.6699-11.0801,6.83-21.1001,11.8999-30.9301
		C1221.72,1104.67,1218.67,1107.92,1215.8,1110.8 M839.43,1163.72c4.52,3.05,9.67,5.51,14.84,7.15c6.71,4.53,15.19,6.46,21.02,12.24
		c-14.11-0.2-28.14-5.13-42.2599-2.8199c0.1,1.2,0,2.6599,1.17,3.4399c5.34,4.54,11.72,7.6,17.59,11.37
		c9.33,5.65,18.71,11.24,27.68,17.47c1.91,1.42,4.22,2.87,4.61,5.4501c-10.8-0.85-21.16-5.0801-32.1-4.87
		c-5.83-0.1-12.62,0.33-16.72,5.0699c-1.88,1.86-0.68,4.88,1.04,6.4301c7.23,6.9199,17.03,9.7899,25.83,14.08
		c-7.7-0.85-15.77-1.5599-23.14,1.35c-3.9,1.4801-7.14,5.5701-6.23,9.9c1.14,5.66,5.12,10.23,8.97,14.3201
		c1.28,1.45,3.96,2.9299,2.86,5.24c-2.44,1.62-5.22,2.6499-7.58,4.4099c-6.14,4.16-8.83,12.38-7.33,19.49
		c19.91-3.8099,40.24-10.36,55.55-24.1699c13.66-11.6801,21.74-28.79,24.9-46.26c0.77-3.8201,1.73-7.64,1.57-11.5601
		c-5.64-2.5199-7.16-8.95-10.68-13.47c-9.78-14.4399-26.32-21.9399-41.95-28.3199C852.63,1167.39,846.24,1164.59,839.43,1163.72
		 M1658.37,1369.72l0.71,1.28c2.9701,0.14,5.9501-0.17,8.9301-0.48C1664.85,1369.71,1661.59,1369.54,1658.37,1369.72z"/>
	<path fill="#C5803E" stroke="#C5803E" stroke-width="0.194" d="M655.44,777.93c1.14,7.98,0.67,16.05,0.92,24.08
		c0.11,3.1-0.23,6.19-0.6,9.27l-0.93-0.42c0.09-7.59-0.12-15.18-0.01-22.77C655.15,784.71,655.4,781.32,655.44,777.93z"/>
	<path fill="#B18932" stroke="#B18932" stroke-width="0.194" d="M828.37,816.51c1.99-2.74,5.08-4.54,8.18-5.77
		C834.83,813.76,831.56,815.49,828.37,816.51z"/>
	<path fill="#01923F" stroke="#01923F" stroke-width="0.194" d="M634.72,836.71c6.25-7.34,12.72-14.57,20.08-20.81
		c-0.22,8.69,1.07,17.35,0.32,26.05c-0.65,5.64-0.26,11.33-0.45,17c-8.41,2.05-17.41,5.48-25.99,2.31
		c-3.23-1.51-3.88-5.37-3.32-8.55C627.01,846.65,631.04,841.66,634.72,836.71z"/>
	<path fill="#6EC340" stroke="#6EC340" stroke-width="0.194" d="M624.37,851.91l0.99,0.8c-0.56,3.18,0.09,7.04,3.32,8.55
		c8.58,3.17,17.58-0.26,25.99-2.31c0.35,0.15,1.05,0.45,1.4,0.6c-4.28,2.3-9.22,2.61-13.84,3.86c-5.05,1.29-10.57,0.91-15.24-1.45
		C624.07,859.43,622.78,855.56,624.37,851.91z"/>
	<path fill="#71706E" stroke="#71706E" stroke-width="0.194" d="M638.27,902.84c1.34,2.03,2.61,4.12,4.3,5.9
		c2.01-0.13,4.03-0.22,6.05-0.32c-17.99,33.51-32.6,69.47-37.56,107.41c-1.59-1.2-3.29-2.24-5.02-3.22
		c-3.29-1.92-6.87-3.26-10.44-4.53c0.03-0.43,0.1-1.28,0.13-1.7c3.43-26.69,11.12-53.02,23.86-76.79
		C624.71,919.95,631.13,911.08,638.27,902.84z"/>
	<path fill="#030000" stroke="#030000" stroke-width="0.194" d="M648.62,908.42c0.85-0.74,1.95-1.07,3.04-1.29
		c-19.17,34.16-33.8199,71.46-38.64,110.52c-0.49-0.46-1.47-1.37-1.96-1.82C616.02,977.89,630.63,941.93,648.62,908.42z"/>
	<path fill="#E3DDAA" stroke="#E3DDAA" stroke-width="0.194" d="M595.57,1006.28l0.16,0.1c-0.03,0.42-0.1,1.27-0.13,1.7
		c3.57,1.27,7.15,2.61,10.44,4.53c4.3,5.3,8.9,10.53,11.55,16.9c5.5,11.98,6.35,25.66,4.3,38.55
		c-2.58,13.6599-9.71,27.86-22.88,33.95c-5.48,2.85-11.77,1.6799-17.68,1.53c-10.03-5-18.02-13.8-21.62-24.4501
		c-4.16-9.76-4.69-20.62-3.8-31.0599c1.33-13.85,7.5-27.78,18.91-36.19c4.73-3.15,10.47-4.92,16.18-4.3
		C592.58,1007.45,594.88,1008.27,595.57,1006.28 M576.81,1017.78c-7.5,5.0099-11.88,13.45-14.09,21.99
		c-4.23,16.77-1.2599,35.51,8.77,49.71c4.07,5.37,9.55,10.48,16.46,11.53c-9.97-8.61-15.61-21.26-18.23-33.95
		c-3.21-14.92-1.12-31.6001,8.29-43.97c2.88-3.94,6.98-6.6801,10.29-10.21C584.1,1013.45,580.35,1015.59,576.81,1017.78
		 M593.25,1015.33c-2.03,0.78-3.9,1.99-5.42,3.55c-10.58,11.12-16.06,26.87-14.88,42.15c0.93,10.4399,4.92,20.59,11.15,29
		c2.85,3.37,6.16,7.35,10.82,7.84c4.65-1,7.52-5.2,10.35-8.65c7.46-10.6699,11.27-23.9299,10.26-36.9299
		c-1.05-12.03-5.64-23.98-13.89-32.89C599.38,1017.29,596.69,1014.19,593.25,1015.33z"/>
	<path fill="#C4BE66" stroke="#C4BE66" stroke-width="0.194" d="M576.81,1017.78c3.54-2.19,7.29-4.33,11.49-4.9
		c-3.31,3.53-7.41,6.27-10.29,10.21c-9.41,12.3699-11.5,29.05-8.29,43.97c2.6201,12.6899,8.26,25.34,18.23,33.95
		c-6.91-1.05-12.39-6.16-16.46-11.53c-10.03-14.2-13-32.9399-8.77-49.71C564.93,1031.23,569.31,1022.79,576.81,1017.78z"/>
	<path fill="#C4BE66" stroke="#C4BE66" stroke-width="0.194" d="M606.04,1012.61c1.73,0.98,3.43,2.02,5.02,3.22
		c0.49,0.45,1.47,1.36,1.96,1.82c8.13,8.41,13.06,19.38,16.02,30.59c1.9901,10.12,1.77,20.75-1.31,30.63
		c-1.37,5.22-4.7,9.71-5.6,15.09c-0.16-0.49-0.48-1.45-0.64-1.9399c-5.04,7.66-13.21,13.66-22.54,14.38
		c-5.95,0.22-12.32,0.27-17.62-2.86c5.91,0.1499,12.2,1.3199,17.68-1.53c13.17-6.09,20.3-20.29,22.88-33.95
		c2.05-12.89,1.2-26.5701-4.3-38.55C614.94,1023.14,610.34,1017.91,606.04,1012.61z"/>
	<path fill="#FFFCC7" stroke="#FFFCC7" stroke-width="0.194" d="M593.25,1015.33c3.44-1.14,6.13,1.96,8.39,4.07
		c8.25,8.91,12.84,20.86,13.89,32.89c1.0099,13-2.8,26.26-10.26,36.9299c-2.83,3.4501-5.7,7.65-10.35,8.65
		c-4.66-0.49-7.97-4.47-10.82-7.84c-6.23-8.41-10.22-18.5601-11.15-29c-1.18-15.28,4.3-31.03,14.88-42.15
		C589.35,1017.32,591.22,1016.11,593.25,1015.33z"/>
	<path fill="#AF5727" stroke="#AF5727" stroke-width="0.194" d="M1249.6801,1077.55c13.13-16.6801,29.8099-30.25,47.5-41.8101
		c3.25,3.95,3.8999,9.37,4.74,14.28c1.3099,8.9299-2.64,17.8099-8.92,24.03c-1.39,1.6599-3.98,3.9399-2.28,6.24
		c5.1801,3.0599,11.1801,4.5399,16.27,7.86c6.0701,3.41,12.17,8.5399,13.23,15.83c0.36,6.39-4.5,11.47-9.12,15.21
		c-6.34,4.51-13.5399,7.8401-21.0699,9.8101c-1.8401,0.55-3.85,0.8101-5.36,2.08c10.09,0.74,20.26-0.63,30.3199,0.88
		c5.34,0.8401,10.96,1.49,15.67,4.36c2.6699,1.55,3.97,5.0801,2.6599,7.9501c-2.7,6.5599-8.7799,10.98-14.97,14
		c-15.15,7.38-32.12,8.9399-48.33,12.74c-1.59,0.26-2.86,1.26-4.14,2.13c2.91,3.14,7.54,3.33,11.4399,4.5
		c23.1101,4.87,46.7001,6.88,69.9601,10.88c3.4399,0.8199,7.1699,1.0499,10.28,2.87c1.72,0.7,1.74,3.47,0.0599,4.24
		c-4.78,3.4-10.53,5.0599-16.02,6.91c-13.0499,4.3099-26.4,7.63-39.53,11.6499c-0.9199,0.27-1.6499,0.8-2.1899,1.5901
		c9.12,1.99,18.51,2.0599,27.79,2.72c32.0699,1.9399,64.21,2.22,96.2799,3.97c-10.84,2.2001-21.98,2.76-33,3.73
		c-44.63,3.03-90.5,0.1001-132.7899-15.4299c-9.1801-3.36-18.03-7.5-26.67-12.02c-6.41-22.21-10.38-45.77-6.2-68.77
		C1228.58,1110.72,1237.5601,1092.75,1249.6801,1077.55z"/>
	<path fill="#AF5727" stroke="#AF5727" stroke-width="0.194" d="M1215.8,1110.8c2.87-2.88,5.9199-6.13,10.1399-6.8
		c-5.0699,9.83-10.23,19.85-11.8999,30.9301c-4.25,23.21,2.6599,46.2999,5.58,69.22c0.21,1.3099,0.3,3.75-1.7,3.51
		c-4.61-0.4501-8.77-2.79-12.92-4.66c-6.97-3.42-13.88-6.98-21.08-9.9c-2.52-1.13-5.3301-0.7999-7.9801-0.5
		c-23.5199,3.1-47.34,3.5-71.0099,2.13c-1.3-0.0599-2.55-0.28-3.76-0.6699c-3.4801-1.3501-7.25-1.1901-10.89-1.26
		c0.15-0.51,0.46-1.53,0.62-2.04c25.9299-1.1901,51.5-7.12,76-15.51c-5.4401,0.33-10.7101,1.87-16.13,2.33
		c-11.5601,1.2001-23.46,1.6901-34.8-1.24c-9.97-2.51-19.9-5.26-29.5499-8.8199c-6.3401-2.36-12.8-4.61-18.49-8.34
		c5.83,0.4099,11.37,2.46,17.09,3.5599c20.86,4.4301,42.2,7.79,63.59,6.6901c8.26-1.0601,16.6801-1.9901,24.5-5.05
		c-8.71-0.59-17.47,0.3099-26.16-0.6801c-20.13-1.1499-40.0399-6.08-58.46-14.23c-2.34-1.38-5.5-2.26-6.52-5.03
		c9.35-1.46,18.77,0.4401,28.04,1.65c15.22,2.2001,30.38,4.76,45.6899,6.3201c10.0801,0.64,20.4,1.3099,30.3201-1.11
		c6.04-1.78,12.9199-5.1901,14.47-11.89C1203.3199,1128.89,1208.35,1118.8199,1215.8,1110.8z"/>
	<path fill="#BB5813" stroke="#BB5813" stroke-width="0.194" d="M839.43,1163.72c6.81,0.87,13.2,3.67,19.64,5.9401
		c-1.61,0.4-3.2,0.83-4.8,1.21C849.1,1169.23,843.95,1166.77,839.43,1163.72z"/>
	<path fill="#AF5727" stroke="#AF5727" stroke-width="0.194" d="M854.27,1170.87c1.6-0.38,3.19-0.8099,4.8-1.21
		c15.63,6.38,32.17,13.88,41.95,28.3199c3.52,4.52,5.04,10.9501,10.68,13.47c0.16,3.92-0.8,7.74-1.57,11.5601
		c-3.16,17.47-11.24,34.58-24.9,46.26c-15.31,13.8099-35.64,20.36-55.55,24.1699c-1.5-7.11,1.19-15.33,7.33-19.49
		c2.36-1.76,5.14-2.7899,7.58-4.4099c1.1-2.3101-1.58-3.79-2.86-5.24c-3.85-4.0901-7.83-8.66-8.97-14.3201
		c-0.91-4.33,2.33-8.4199,6.23-9.9c7.37-2.9099,15.44-2.2,23.14-1.35c-8.8-4.29-18.6-7.16-25.83-14.08
		c-1.72-1.55-2.92-4.5701-1.04-6.4301c4.1-4.74,10.89-5.1699,16.72-5.0699c10.94-0.2101,21.3,4.02,32.1,4.87
		c-0.39-2.5801-2.7-4.03-4.61-5.4501c-8.97-6.23-18.35-11.8199-27.68-17.47c-5.87-3.77-12.25-6.83-17.59-11.37
		c-1.17-0.78-1.07-2.24-1.17-3.4399c14.12-2.3101,28.15,2.62,42.2599,2.8199C869.46,1177.33,860.98,1175.4,854.27,1170.87z"/>
	<path fill="#BA5713" stroke="#BA5713" stroke-width="0.194" d="M1069.78,1191.24c6.99-0.97,14.08,0.05,21.12-0.48
		c-0.16,0.51-0.47,1.53-0.62,2.04c3.64,0.0699,7.4099-0.0901,10.89,1.26c-5.37,0.6599-10.7301-0.3501-16.0701-0.7401
		C1079.98,1192.73,1074.78,1192.52,1069.78,1191.24z"/>
	<path fill="#AF5727" stroke="#AF5727" stroke-width="0.194" d="M275,1224.86c31.34-19.72,68.8-27.83,105.44-28.7999
		c5.08,1.4299,10.37,0.72,15.56,0.9399c2.89,0.15,5.77-0.15,8.54-0.96c23.24,0.35,46.49,3.4399,69.22,8.3999
		c42.45,9.39,84.68,20.1901,127.8,26.1801c24.35,3.54,48.99,5.33,73.6,4.7c-16.7,7.04-35.29,7.91-53.21,8.0901
		c-25.65,0.5399-51.28-0.98-76.89-2.24c-14.35-1.24-28.77-1.25-43.12-2.41c-50.04-2.4401-100.29-4.34-150.3-0.21
		c-32.06,3.7799-62.52,16.0599-90.6,31.6c-14.99,8.6899-29.68,18.1799-42.5,29.9199C227.01,1269.04,247.8,1241.89,275,1224.86z"/>
	<path fill="#8A421B" stroke="#8A421B" stroke-width="0.194" d="M380.44,1196.0601c8.02-0.4701,16.08-0.4601,24.1-0.02
		c-2.77,0.8099-5.65,1.11-8.54,0.96C390.81,1196.78,385.52,1197.49,380.44,1196.0601z"/>
	<path fill="#B46D2D" stroke="#B46D2D" stroke-width="0.194" d="M659.55,1210.03c0.02-3.23-0.4-6.64,1.2-9.5901
		c-0.7,11.2201,0.74,22.38,0.77,33.5901c-1.64-3.4-2.68-7.02-3.91-10.5601c0.56,0.03,1.68,0.1,2.24,0.13
		C659.7,1219.0699,659.59,1214.55,659.55,1210.03z"/>
	<path fill="#C48044" stroke="#C48044" stroke-width="0.194" d="M1895.66,1224.05c0.23-5.24-0.42-10.54,0.77-15.7001
		c1.1899,3.74,0.6899,7.72,0.8199,11.6c-0.14,3.8601,0.37,7.8301-0.8101,11.5901
		C1895.97,1229.0601,1895.51,1226.5699,1895.66,1224.05z"/>
	<path fill="#AF5727" stroke="#AF5727" stroke-width="0.194" d="M1139.01,1221.22c97.11-8.74,195.72,2.9,288.76,31.74
		c-2.02,0.4301-4.02,0.9401-6.01,1.36c-61.41-12.11-123.15-23.9099-185.75-27.4299c-8.98-0.88-18.02-0.49-27.03-0.71
		c-17.28-0.1901-34.5699,0.8199-51.6699,3.2599c-35.0601,4.7001-70.0601,16.53-97.76,39.0801
		c-14.5801,11.7-26.9501,26.0699-36.61,42.0499c-2.21-1.46-6.75-2.4399-5.54-5.95c3.33-19.45,11.4399-38.13,23.6799-53.64
		c5.0901-6.61,11.1001-12.4299,17.2301-18.0599C1084.96,1227.49,1111.91,1223.53,1139.01,1221.22z"/>
	<path fill="#BC5A13" stroke="#BC5A13" stroke-width="0.194" d="M1427.77,1252.96c6.25,1.48,12.45,3.3101,18.35,5.9
		c-8.26-0.63-16.26-3-24.36-4.54C1423.75,1253.9,1425.75,1253.39,1427.77,1252.96z"/>
	<path fill="#C57933" stroke="#C57933" stroke-width="0.194" d="M1704.5,1340.99c3.71-2.1,8.62-1.9299,12.1801,0.45
		C1712.61,1341.65,1708.54,1341.36,1704.5,1340.99z"/>
	<path fill="#C8843D" stroke="#C8843D" stroke-width="0.194" d="M1658.37,1369.72c3.22-0.1799,6.48-0.01,9.64,0.8
		c-2.98,0.3099-5.96,0.62-8.9301,0.48L1658.37,1369.72z"/>
	<path fill="#C27F42" stroke="#C27F42" stroke-width="0.194" d="M422.54,1392.55c1-1.6001,3.69-0.54,5.29-0.2301
		c-1.14,0.9301-2.46,1.25-3.96,0.9501C423.53,1393.09,422.87,1392.73,422.54,1392.55z"/>
	<path fill="#CD7F38" stroke="#CD7F38" stroke-width="0.194" d="M1183.9399,1412.29c11.1801-0.1801,22.3701-1.61,33.54-0.7101
		c-23.35,2.76-47,2.2301-70.48,1.76c-6.41-0.1599-12.8199-0.45-19.2-1.08c6.36-0.97,12.7999-0.58,19.21-0.52
		C1159.3,1412.4399,1171.63,1412.4399,1183.9399,1412.29z"/>
</g>
</svg>
